Coordinates
version=1
nRows=7
nColumns=31
inDegrees=yes

Units are S.I. units (second, meters, Newtons, ...)
If the header above contains a line with 'inDegrees', this indicates whether rotational values are in degrees (yes) or radians (no).

endheader
time	bJoint_1	bJoint_3	bJoint_4	seatpos	slocangle	soarinout	sblpos	plocangle	poarinout	pblpos	hipangle	kneeangle	footangle	lbackangle	uarmleft_out	uarmleft_trn	uarmleft_up	se_inout	se_updown	handleleft_out	handleleft_trn	handleleft_up	uarmright_out	uarmright_trn	uarmright_up	pe_inout	pe_updown	handleright_out	handleright_trn	handleright_up
      5.02000000	      0.00000102	     -0.00000008	     -0.00000011	     -0.31619070	     49.89162393	     17.80224135	    -17.80224135	     49.18297685	     17.02389502	    -17.02389502	     45.65689121	     96.95387597	     52.61076718	     11.20622417	    -26.78272435	    -46.24151468	    -25.14412615	      6.52791702	     -1.07762534	     26.03724808	     33.69065355	     36.06926830	     54.57316430	   -105.25794468	     65.40854088	     -0.67229423	     -6.95684012	     37.72624704	    -62.11435017	     86.00113894
      5.04000000	      0.00000105	     -0.00000008	     -0.00000011	     -0.31420923	     49.65857745	     17.81053482	    -17.81053482	     48.93657714	     17.01886034	    -17.01886034	     45.81947793	     96.62824708	     52.44772501	     11.20576023	    -26.91704103	    -46.17214823	    -25.08016308	      6.40531685	     -0.98594522	     26.11248833	     33.76165247	     36.10274330	     54.53139930	   -105.16433098	     65.58912695	     -0.73054119	     -6.83529614	     37.80041651	    -62.13287915	     86.17605614
      5.06000000	      0.00000093	     -0.00000008	     -0.00000011	     -0.31353209	     49.41515090	     17.80347507	    -17.80347507	     48.69161372	     17.02951356	    -17.02951356	     45.87515319	     96.51677597	     52.39192917	     11.09467605	    -26.90294168	    -46.21536567	    -24.76951471	      6.27578447	     -0.91732664	     26.11288752	     33.84407304	     36.21672588	     54.34645202	   -105.11549819	     65.80878258	     -0.44867381	     -7.13859227	     37.90600986	    -61.93014011	     86.14451501
      5.08000000	      0.00000097	     -0.00000008	     -0.00000011	     -0.31228351	     49.16039004	     17.79969862	    -17.79969862	     48.44523404	     17.02368306	    -17.02368306	     45.97796539	     96.31097600	     52.28894139	     11.03010972	    -27.10631049	    -46.13965256	    -24.52758326	      6.40185523	     -1.10001332	     26.04041418	     33.81767712	     36.22440051	     54.28449045	   -104.95283178	     65.92001404	     -0.44124742	     -6.94839978	     37.89778899	    -61.88303728	     86.27584018
      5.10000000	      0.00000101	     -0.00000007	     -0.00000011	     -0.31102902	     48.90634110	     17.80044586	    -17.80044586	     48.17918222	     17.03257792	    -17.03257792	     46.08146424	     96.10386288	     52.18532711	     10.95562022	    -27.12274911	    -46.17427178	    -24.24960215	      6.20244140	     -1.08360841	     26.08885148	     33.93488007	     36.26651690	     54.04245449	   -104.68864755	     66.09814959	     -0.66837468	     -7.21743285	     37.90194788	    -61.96023415	     86.17840251
      5.12000000	      0.00000097	     -0.00000008	     -0.00000011	     -0.30963167	     48.66905556	     17.81434450	    -17.81434450	     47.93326726	     17.02602016	    -17.02602016	     46.19698648	     95.87276171	     52.06974820	     10.90500302	    -27.33827073	    -46.10706910	    -24.03972387	      6.29443078	     -1.32674432	     26.04129787	     33.92264020	     36.20603233	     53.99140992	   -104.55176813	     66.22575437	     -0.65204251	     -7.03731406	     37.91722664	    -61.91519688	     86.32478393
      5.14000000	      0.00000094	     -0.00000007	     -0.00000011	     -0.30839246	     48.41462750	     17.81053868	    -17.81053868	     47.69514504	     17.03037016	    -17.03037016	     46.29964506	     95.66745762	     51.96710268	     10.83968196	    -27.52968450	    -45.94429880	    -24.04315687	      6.48554324	     -0.97799117	     25.97617449	     33.82941253	     36.47840052	     53.92374906	   -104.39057084	     66.32498629	     -0.68021034	     -6.85995270	     37.90154625	    -61.89532608	     86.43535086
